<svg width="32" height="32" viewBox="0 0 32 32" fill="none" xmlns="http://www.w3.org/2000/svg">
<path d="M16 28C22.6274 28 28 22.6274 28 16C28 9.37258 22.6274 4 16 4C9.37258 4 4 9.37258 4 16C4 22.6274 9.37258 28 16 28Z" stroke="white" stroke-width="2" stroke-linecap="round" stroke-linejoin="round"/>
<path d="M8.87808 25.6589C10.6581 22.7101 13.1699 20.2712 16.1699 18.5789C19.1699 16.8865 22.5563 15.9981 26.0007 15.9998C26.6753 15.9998 27.3416 16.0326 27.9995 16.0984" stroke="white" stroke-width="2" stroke-linecap="round" stroke-linejoin="round"/>
<path d="M23.5037 6.63635C21.6299 8.93944 19.2659 10.7955 16.584 12.0693C13.9021 13.3432 10.9698 14.0026 8.00073 13.9998C6.73607 14.0004 5.47417 13.8816 4.23181 13.6452" stroke="white" stroke-width="2" stroke-linecap="round" stroke-linejoin="round"/>
<path d="M10.7413 5.21063C13.7487 6.97522 16.2422 9.49573 17.9743 12.5219C19.7065 15.5481 20.6169 18.9747 20.6154 22.4615C20.6165 24.0953 20.4179 25.7231 20.024 27.3086" stroke="white" stroke-width="2" stroke-linecap="round" stroke-linejoin="round"/>
</svg>
