<svg width="101" height="53" viewBox="0 0 101 53" fill="none" xmlns="http://www.w3.org/2000/svg">
<path d="M16.9224 32.2942C16.1199 32.2942 15.4834 32.8477 15.4834 33.6779C15.4834 34.508 16.1199 35.0615 16.9224 35.0615C17.7249 35.0615 18.3614 34.508 18.3614 33.6779C18.3614 32.8477 17.7249 32.2942 16.9224 32.2942ZM16.9224 34.6464C16.3413 34.6464 15.9262 34.2313 15.9262 33.6502C15.9262 33.0967 16.3413 32.654 16.9224 32.654C17.5035 32.654 17.9186 33.0691 17.9186 33.6502C17.9186 34.2313 17.4758 34.6464 16.9224 34.6464Z" fill="white"/>
<path d="M30.8419 27.4515H23.8683L24.6708 15.3308L20.1325 27.4515H13.6847L23.9513 0.0830154H30.8419L30.0393 12.3421L34.6607 0.0830154H41.1362L30.8419 27.4515Z" fill="white"/>
<path d="M31.6997 27.4515L41.9663 0.0830154H48.4418L38.1752 27.4515H31.6997Z" fill="white"/>
<path d="M12.9375 18.015C3.88849 28.6414 -4.63475 42.7822 2.89226 49.2853C10.1979 55.5947 19.3299 51.8589 25.5563 49.3684C31.7827 46.8778 100.577 16.9911 100.577 16.9911C101.242 16.6591 101.103 16.244 100.301 16.4653C99.9686 16.5484 25.3903 36.7495 25.3903 36.7495C15.9262 39.4061 5.13376 33.6225 12.9375 18.015Z" fill="white"/>
<path d="M17.1715 33.7609C17.3652 33.7609 17.5312 33.6502 17.5312 33.3735C17.5312 33.0137 17.3099 32.9307 16.8948 32.9307H16.3413V34.425H16.7287V33.7885H16.7841L17.1161 34.425H17.5589L17.1715 33.7609ZM16.9224 33.5395H16.7011V33.2074H16.8948C17.0055 33.2074 17.1438 33.2074 17.1438 33.3735C17.1161 33.4841 17.0608 33.5395 16.9224 33.5395Z" fill="white"/>
<path d="M81.9812 0C81.1787 0 80.5422 0.553457 80.5422 1.38364C80.5422 2.21383 81.1787 2.76728 81.9812 2.76728C82.7837 2.76728 83.4202 2.21383 83.4202 1.38364C83.4202 0.553457 82.7837 0 81.9812 0ZM81.9812 2.35219C81.4001 2.35219 80.985 1.9371 80.985 1.35597C80.985 0.802515 81.4001 0.359748 81.9812 0.359748C82.5623 0.359748 82.9774 0.774842 82.9774 1.35597C82.9774 1.9371 82.5623 2.35219 81.9812 2.35219Z" fill="white"/>
<path d="M82.2303 1.46666C82.424 1.46666 82.5901 1.35597 82.5901 1.07924C82.5901 0.719495 82.3687 0.636475 81.9536 0.636475H81.4001V2.13081H81.7876V1.46666H81.8429L82.175 2.10314H82.6177L82.2303 1.46666ZM82.0089 1.21761H81.7876V0.885529H81.9813C82.092 0.885529 82.2303 0.88553 82.2303 1.05157C82.2027 1.18993 82.1196 1.21761 82.0089 1.21761Z" fill="white"/>
<path d="M77.7196 4.62136L79.463 0.0553436H66.4844H66.4291H59.7046L52.9247 8.27418L56.0518 0.0553436H49.4933L39.3097 27.4515H45.7851L50.1298 15.9949L50.4342 27.4515L70.3033 27.3961L72.185 22.1383H64.6303L67.1209 15.4968H73.3473L75.2567 10.405H69.0303L71.1611 4.64904H77.7196V4.62136ZM56.8543 25.6251L56.4392 11.3459L66.2354 0.6088L56.8543 25.6251Z" fill="white"/>
</svg>
