<svg width="278" height="32" viewBox="0 0 278 32" fill="none" xmlns="http://www.w3.org/2000/svg">
<path d="M272 5H252C251.448 5 251 5.44772 251 6V26C251 26.5523 251.448 27 252 27H272C272.552 27 273 26.5523 273 26V6C273 5.44772 272.552 5 272 5Z" stroke="white" stroke-width="2" stroke-linecap="round" stroke-linejoin="round"/>
<path d="M261 14.0001V22.0001" stroke="white" stroke-width="2" stroke-linecap="round" stroke-linejoin="round"/>
<path d="M257 14.0001V22.0001" stroke="white" stroke-width="2" stroke-linecap="round" stroke-linejoin="round"/>
<path d="M261 17.5001C261 16.5719 261.369 15.6816 262.025 15.0252C262.682 14.3689 263.572 14.0001 264.5 14.0001C265.428 14.0001 266.318 14.3689 266.975 15.0252C267.631 15.6816 268 16.5719 268 17.5001V22.0001" stroke="white" stroke-width="2" stroke-linecap="round" stroke-linejoin="round"/>
<path d="M257 11.5C257.828 11.5 258.5 10.8284 258.5 10C258.5 9.17157 257.828 8.5 257 8.5C256.172 8.5 255.5 9.17157 255.5 10C255.5 10.8284 256.172 11.5 257 11.5Z" fill="white"/>
<path d="M16 21C18.7614 21 21 18.7614 21 16C21 13.2386 18.7614 11 16 11C13.2386 11 11 13.2386 11 16C11 18.7614 13.2386 21 16 21Z" stroke="white" stroke-width="2" stroke-miterlimit="10"/>
<path d="M21.5 4.5H10.5C7.18629 4.5 4.5 7.18629 4.5 10.5V21.5C4.5 24.8137 7.18629 27.5 10.5 27.5H21.5C24.8137 27.5 27.5 24.8137 27.5 21.5V10.5C27.5 7.18629 24.8137 4.5 21.5 4.5Z" stroke="white" stroke-width="2" stroke-linecap="round" stroke-linejoin="round"/>
<path d="M22.5 11C23.3284 11 24 10.3284 24 9.5C24 8.67157 23.3284 8 22.5 8C21.6716 8 21 8.67157 21 9.5C21 10.3284 21.6716 11 22.5 11Z" fill="white"/>
<path d="M102.25 20.25C104.597 20.25 106.5 18.3472 106.5 16C106.5 13.6528 104.597 11.75 102.25 11.75C99.9028 11.75 98 13.6528 98 16C98 18.3472 99.9028 20.25 102.25 20.25Z" stroke="white" stroke-width="2" stroke-linecap="round" stroke-linejoin="round"/>
<path d="M98 11.75V3.25012H93.75C92.6228 3.25012 91.5418 3.69789 90.7448 4.49492C89.9478 5.29195 89.5 6.37295 89.5 7.50012C89.5 8.62729 89.9478 9.7083 90.7448 10.5053C91.5418 11.3024 92.6228 11.7501 93.75 11.7501L98 11.75Z" stroke="white" stroke-width="2" stroke-linecap="round" stroke-linejoin="round"/>
<path d="M98 20.2499V11.75H93.75C92.6228 11.75 91.5418 12.1978 90.7448 12.9948C89.9478 13.7918 89.5 14.8728 89.5 16C89.5 17.1272 89.9478 18.2082 90.7448 19.0052C91.5418 19.8022 92.6228 20.25 93.75 20.25L98 20.2499Z" stroke="white" stroke-width="2" stroke-linecap="round" stroke-linejoin="round"/>
<path d="M98 11.75V3.25012H102.25C103.377 3.25012 104.458 3.69789 105.255 4.49492C106.052 5.29195 106.5 6.37295 106.5 7.50012C106.5 8.62729 106.052 9.7083 105.255 10.5053C104.458 11.3024 103.377 11.7501 102.25 11.7501L98 11.75Z" stroke="white" stroke-width="2" stroke-linecap="round" stroke-linejoin="round"/>
<path d="M98 20.2499V24.4999C98 25.3405 97.7508 26.1622 97.2838 26.8611C96.8168 27.56 96.153 28.1048 95.3764 28.4265C94.5999 28.7481 93.7453 28.8323 92.9209 28.6683C92.0965 28.5044 91.3392 28.0996 90.7448 27.5052C90.1504 26.9108 89.7457 26.1536 89.5817 25.3291C89.4177 24.5047 89.5018 23.6502 89.8235 22.8736C90.1452 22.097 90.6899 21.4332 91.3888 20.9662C92.0877 20.4992 92.9094 20.25 93.75 20.25L98 20.2499Z" stroke="white" stroke-width="2" stroke-linecap="round" stroke-linejoin="round"/>
<path d="M180 28C186.627 28 192 22.6274 192 16C192 9.37258 186.627 4 180 4C173.373 4 168 9.37258 168 16C168 22.6274 173.373 28 180 28Z" stroke="white" stroke-width="2" stroke-linecap="round" stroke-linejoin="round"/>
<path d="M172.878 25.6589C174.658 22.7101 177.17 20.2712 180.17 18.5789C183.17 16.8865 186.556 15.9981 190.001 15.9998C190.675 15.9998 191.342 16.0326 192 16.0984" stroke="white" stroke-width="2" stroke-linecap="round" stroke-linejoin="round"/>
<path d="M187.504 6.63635C185.63 8.93944 183.266 10.7955 180.584 12.0693C177.902 13.3432 174.97 14.0026 172.001 13.9998C170.736 14.0004 169.474 13.8816 168.232 13.6452" stroke="white" stroke-width="2" stroke-linecap="round" stroke-linejoin="round"/>
<path d="M174.741 5.21063C177.749 6.97522 180.242 9.49573 181.974 12.5219C183.706 15.5481 184.617 18.9747 184.615 22.4615C184.617 24.0953 184.418 25.7231 184.024 27.3086" stroke="white" stroke-width="2" stroke-linecap="round" stroke-linejoin="round"/>
</svg>
